STARTFONT 2.1
FONT -FontForge-Shadows Into Light-Book-R-Normal--14-140-72-72-P-57-ISO10646-1
SIZE 14 72 72
FONTBOUNDINGBOX 19 22 -2 -6
COMMENT "Generated by fontforge, http://fontforge.sourceforge.net"
COMMENT "Copyright (c) 2010, Kimberly Geswein (kimberlygeswein.com)"
STARTPROPERTIES 39
FOUNDRY "FontForge"
FAMILY_NAME "Shadows Into Light"
WEIGHT_NAME "Book"
SLANT "R"
SETWIDTH_NAME "Normal"
ADD_STYLE_NAME ""
PIXEL_SIZE 14
POINT_SIZE 140
RESOLUTION_X 72
RESOLUTION_Y 72
SPACING "P"
AVERAGE_WIDTH 57
CHARSET_REGISTRY "ISO10646"
CHARSET_ENCODING "1"
FONTNAME_REGISTRY ""
CHARSET_COLLECTIONS "ISO8859-2 ISO8859-9 ISO8859-4 ISO10646-1"
FONT_NAME "ShadowsIntoLight"
FACE_NAME "Shadows Into Light"
COPYRIGHT "Copyright (c) 2010, Kimberly Geswein (kimberlygeswein.com)"
FONT_VERSION "001.000"
FONT_ASCENT 11
FONT_DESCENT 3
UNDERLINE_POSITION 0
UNDERLINE_THICKNESS 0
X_HEIGHT 7
CAP_HEIGHT 9
RAW_ASCENT 799
RAW_DESCENT 200
NORM_SPACE 6
RELATIVE_WEIGHT 40
RELATIVE_SETWIDTH 50
SUPERSCRIPT_X 0
SUPERSCRIPT_Y 6
SUPERSCRIPT_SIZE 9
SUBSCRIPT_X 0
SUBSCRIPT_Y 1
SUBSCRIPT_SIZE 9
AVG_LOWERCASE_WIDTH 52
AVG_UPPERCASE_WIDTH 67
ENDPROPERTIES
CHARS 352
STARTCHAR space
ENCODING 32
SWIDTH 450 0
DWIDTH 6 0
BBX 1 1 0 0
BITMAP
00
ENDCHAR
STARTCHAR exclam
ENCODING 33
SWIDTH 137 0
DWIDTH 2 0
BBX 2 12 0 0
BITMAP
80
80
80
80
80
80
80
00
00
00
00
40
ENDCHAR
STARTCHAR quotedbl
ENCODING 34
SWIDTH 212 0
DWIDTH 3 0
BBX 2 4 0 7
BITMAP
C0
C0
C0
C0
ENDCHAR
STARTCHAR numbersign
ENCODING 35
SWIDTH 450 0
DWIDTH 6 0
BBX 5 8 1 1
BITMAP
20
A0
70
D0
58
70
D0
40
ENDCHAR
STARTCHAR dollar
ENCODING 36
SWIDTH 445 0
DWIDTH 6 0
BBX 6 13 0 -2
BITMAP
10
20
18
60
A0
90
7C
14
18
30
10
10
10
ENDCHAR
STARTCHAR percent
ENCODING 37
SWIDTH 450 0
DWIDTH 6 0
BBX 6 11 0 0
BITMAP
08
48
B0
D0
50
20
2C
2C
28
20
40
ENDCHAR
STARTCHAR ampersand
ENCODING 38
SWIDTH 356 0
DWIDTH 5 0
BBX 5 6 0 2
BITMAP
20
20
28
F0
A0
E0
ENDCHAR
STARTCHAR quotesingle
ENCODING 39
SWIDTH 155 0
DWIDTH 2 0
BBX 1 4 0 5
BITMAP
80
80
80
80
ENDCHAR
STARTCHAR parenleft
ENCODING 40
SWIDTH 291 0
DWIDTH 4 0
BBX 4 12 0 0
BITMAP
10
20
20
40
40
80
80
80
80
80
40
30
ENDCHAR
STARTCHAR parenright
ENCODING 41
SWIDTH 241 0
DWIDTH 3 0
BBX 3 11 0 0
BITMAP
80
40
40
20
20
20
20
20
20
40
40
ENDCHAR
STARTCHAR asterisk
ENCODING 42
SWIDTH 481 0
DWIDTH 7 0
BBX 6 7 0 1
BITMAP
20
28
F4
38
E8
54
50
ENDCHAR
STARTCHAR plus
ENCODING 43
SWIDTH 466 0
DWIDTH 7 0
BBX 6 6 0 2
BITMAP
20
20
24
38
E0
20
ENDCHAR
STARTCHAR comma
ENCODING 44
SWIDTH 112 0
DWIDTH 2 0
BBX 1 4 0 -2
BITMAP
80
80
80
80
ENDCHAR
STARTCHAR hyphen
ENCODING 45
SWIDTH 399 0
DWIDTH 6 0
BBX 5 2 0 3
BITMAP
08
F0
ENDCHAR
STARTCHAR period
ENCODING 46
SWIDTH 128 0
DWIDTH 2 0
BBX 1 1 0 0
BITMAP
80
ENDCHAR
STARTCHAR slash
ENCODING 47
SWIDTH 306 0
DWIDTH 4 0
BBX 4 11 0 -1
BITMAP
10
10
20
20
20
40
40
40
40
80
80
ENDCHAR
STARTCHAR zero
ENCODING 48
SWIDTH 308 0
DWIDTH 4 0
BBX 4 8 0 0
BITMAP
20
50
90
90
90
90
50
60
ENDCHAR
STARTCHAR one
ENCODING 49
SWIDTH 112 0
DWIDTH 2 0
BBX 1 9 0 0
BITMAP
80
80
80
80
80
80
80
80
80
ENDCHAR
STARTCHAR two
ENCODING 50
SWIDTH 512 0
DWIDTH 7 0
BBX 7 8 0 0
BITMAP
30
50
90
10
10
20
2E
30
ENDCHAR
STARTCHAR three
ENCODING 51
SWIDTH 461 0
DWIDTH 6 0
BBX 6 10 0 0
BITMAP
30
48
90
20
3C
44
04
04
18
20
ENDCHAR
STARTCHAR four
ENCODING 52
SWIDTH 503 0
DWIDTH 7 0
BBX 7 11 0 0
BITMAP
08
08
18
28
28
4E
F8
08
08
08
08
ENDCHAR
STARTCHAR five
ENCODING 53
SWIDTH 478 0
DWIDTH 7 0
BBX 6 10 0 0
BITMAP
0C
F0
40
80
B8
48
88
10
10
20
ENDCHAR
STARTCHAR six
ENCODING 54
SWIDTH 375 0
DWIDTH 5 0
BBX 5 11 0 0
BITMAP
40
40
40
40
40
80
98
A8
D0
50
60
ENDCHAR
STARTCHAR seven
ENCODING 55
SWIDTH 458 0
DWIDTH 6 0
BBX 6 10 0 0
BITMAP
FC
08
08
08
08
10
10
10
10
08
ENDCHAR
STARTCHAR eight
ENCODING 56
SWIDTH 333 0
DWIDTH 5 0
BBX 4 10 0 0
BITMAP
30
70
90
90
90
60
20
50
50
70
ENDCHAR
STARTCHAR nine
ENCODING 57
SWIDTH 475 0
DWIDTH 7 0
BBX 6 9 0 0
BITMAP
3C
4C
94
A4
C4
04
04
04
04
ENDCHAR
STARTCHAR colon
ENCODING 58
SWIDTH 120 0
DWIDTH 2 0
BBX 1 1 0 5
BITMAP
80
ENDCHAR
STARTCHAR semicolon
ENCODING 59
SWIDTH 121 0
DWIDTH 2 0
BBX 1 6 0 -2
BITMAP
80
00
80
80
80
80
ENDCHAR
STARTCHAR less
ENCODING 60
SWIDTH 409 0
DWIDTH 6 0
BBX 5 7 1 2
BITMAP
08
10
60
80
80
60
10
ENDCHAR
STARTCHAR equal
ENCODING 61
SWIDTH 433 0
DWIDTH 6 0
BBX 6 4 0 1
BITMAP
78
00
3C
C0
ENDCHAR
STARTCHAR greater
ENCODING 62
SWIDTH 450 0
DWIDTH 6 0
BBX 4 7 1 2
BITMAP
80
60
10
10
20
40
80
ENDCHAR
STARTCHAR question
ENCODING 63
SWIDTH 445 0
DWIDTH 6 0
BBX 6 13 0 0
BITMAP
38
C4
04
08
10
20
20
38
00
00
00
00
20
ENDCHAR
STARTCHAR at
ENCODING 64
SWIDTH 945 0
DWIDTH 13 0
BBX 13 13 0 0
BITMAP
0180
0660
0820
1310
2510
4B10
5510
9520
98C0
8008
4010
4060
3F80
ENDCHAR
STARTCHAR A
ENCODING 65
SWIDTH 390 0
DWIDTH 5 0
BBX 7 11 0 0
BITMAP
40
60
60
60
50
50
5E
70
48
88
88
ENDCHAR
STARTCHAR B
ENCODING 66
SWIDTH 537 0
DWIDTH 8 0
BBX 7 10 0 0
BITMAP
38
C8
48
5E
62
42
44
48
50
40
ENDCHAR
STARTCHAR C
ENCODING 67
SWIDTH 487 0
DWIDTH 7 0
BBX 6 10 0 0
BITMAP
38
20
40
40
40
80
84
84
88
70
ENDCHAR
STARTCHAR D
ENCODING 68
SWIDTH 554 0
DWIDTH 8 0
BBX 7 10 0 0
BITMAP
78
C6
42
42
42
42
24
28
30
20
ENDCHAR
STARTCHAR E
ENCODING 69
SWIDTH 474 0
DWIDTH 7 0
BBX 6 10 0 0
BITMAP
9C
60
40
48
50
60
44
48
50
60
ENDCHAR
STARTCHAR F
ENCODING 70
SWIDTH 428 0
DWIDTH 6 0
BBX 6 10 0 0
BITMAP
0C
B0
C0
80
84
98
A0
40
40
40
ENDCHAR
STARTCHAR G
ENCODING 71
SWIDTH 591 0
DWIDTH 8 0
BBX 8 11 0 -2
BITMAP
0C
10
20
43
4E
82
86
8A
72
02
02
ENDCHAR
STARTCHAR H
ENCODING 72
SWIDTH 424 0
DWIDTH 6 0
BBX 5 9 0 0
BITMAP
88
88
88
88
98
68
88
88
48
ENDCHAR
STARTCHAR I
ENCODING 73
SWIDTH 153 0
DWIDTH 2 0
BBX 1 10 1 0
BITMAP
80
80
80
80
80
80
80
80
80
80
ENDCHAR
STARTCHAR J
ENCODING 74
SWIDTH 371 0
DWIDTH 5 0
BBX 5 11 0 -1
BITMAP
10
10
10
10
08
08
08
08
88
88
70
ENDCHAR
STARTCHAR K
ENCODING 75
SWIDTH 524 0
DWIDTH 7 0
BBX 7 9 0 0
BITMAP
84
48
50
60
60
40
7E
40
40
ENDCHAR
STARTCHAR L
ENCODING 76
SWIDTH 537 0
DWIDTH 8 0
BBX 7 9 0 0
BITMAP
80
80
80
40
40
40
46
58
60
ENDCHAR
STARTCHAR M
ENCODING 77
SWIDTH 682 0
DWIDTH 10 0
BBX 9 11 0 0
BITMAP
8100
4100
6100
6300
5300
5480
4C80
4880
4080
4080
4080
ENDCHAR
STARTCHAR N
ENCODING 78
SWIDTH 541 0
DWIDTH 8 0
BBX 7 11 0 0
BITMAP
04
02
82
42
62
52
52
4A
46
42
40
ENDCHAR
STARTCHAR O
ENCODING 79
SWIDTH 382 0
DWIDTH 5 0
BBX 5 9 0 0
BITMAP
38
48
48
88
88
88
88
90
60
ENDCHAR
STARTCHAR P
ENCODING 80
SWIDTH 508 0
DWIDTH 7 0
BBX 7 11 0 0
BITMAP
7C
C2
42
44
58
60
40
40
40
40
40
ENDCHAR
STARTCHAR Q
ENCODING 81
SWIDTH 512 0
DWIDTH 7 0
BBX 7 11 0 0
BITMAP
38
64
44
42
82
82
8A
8C
84
44
3A
ENDCHAR
STARTCHAR R
ENCODING 82
SWIDTH 503 0
DWIDTH 7 0
BBX 6 11 1 0
BITMAP
B8
C4
88
B0
C0
80
C0
B0
8C
80
80
ENDCHAR
STARTCHAR S
ENCODING 83
SWIDTH 541 0
DWIDTH 8 0
BBX 7 10 0 0
BITMAP
1C
20
40
80
80
60
1E
02
0C
30
ENDCHAR
STARTCHAR T
ENCODING 84
SWIDTH 595 0
DWIDTH 8 0
BBX 10 10 0 0
BITMAP
0FC0
F800
0800
0800
0400
0400
0400
0400
0400
0400
ENDCHAR
STARTCHAR U
ENCODING 85
SWIDTH 450 0
DWIDTH 6 0
BBX 6 11 0 -2
BITMAP
04
84
84
84
8C
8C
8C
54
64
04
04
ENDCHAR
STARTCHAR V
ENCODING 86
SWIDTH 524 0
DWIDTH 7 0
BBX 7 10 0 0
BITMAP
02
02
82
44
44
24
24
18
18
08
ENDCHAR
STARTCHAR W
ENCODING 87
SWIDTH 878 0
DWIDTH 12 0
BBX 12 10 0 0
BITMAP
0010
8210
4220
4520
4520
4520
28C0
28C0
2840
1000
ENDCHAR
STARTCHAR X
ENCODING 88
SWIDTH 461 0
DWIDTH 6 0
BBX 6 10 0 0
BITMAP
04
44
48
28
30
10
30
48
48
84
ENDCHAR
STARTCHAR Y
ENCODING 89
SWIDTH 483 0
DWIDTH 7 0
BBX 7 11 0 0
BITMAP
02
04
84
44
48
28
18
10
10
10
20
ENDCHAR
STARTCHAR Z
ENCODING 90
SWIDTH 670 0
DWIDTH 9 0
BBX 9 10 0 0
BITMAP
FF00
0200
0200
0400
0800
1000
2000
2000
4000
FF80
ENDCHAR
STARTCHAR bracketleft
ENCODING 91
SWIDTH 470 0
DWIDTH 7 0
BBX 6 17 0 -1
BITMAP
7C
80
80
80
80
40
40
40
40
40
40
40
40
40
40
40
7C
ENDCHAR
STARTCHAR backslash
ENCODING 92
SWIDTH 554 0
DWIDTH 8 0
BBX 8 14 0 0
BITMAP
80
40
40
20
20
10
10
08
08
04
04
02
02
01
ENDCHAR
STARTCHAR bracketright
ENCODING 93
SWIDTH 512 0
DWIDTH 7 0
BBX 7 17 0 -1
BITMAP
FC
04
04
04
04
04
04
04
04
04
04
02
02
02
02
02
1E
ENDCHAR
STARTCHAR asciicircum
ENCODING 94
SWIDTH 390 0
DWIDTH 5 0
BBX 5 4 0 9
BITMAP
20
50
48
80
ENDCHAR
STARTCHAR underscore
ENCODING 95
SWIDTH 612 0
DWIDTH 9 0
BBX 8 2 0 0
BITMAP
1F
E0
ENDCHAR
STARTCHAR grave
ENCODING 96
SWIDTH 155 0
DWIDTH 2 0
BBX 2 2 0 8
BITMAP
80
40
ENDCHAR
STARTCHAR a
ENCODING 97
SWIDTH 366 0
DWIDTH 5 0
BBX 5 8 0 0
BITMAP
10
30
50
50
98
A8
C8
88
ENDCHAR
STARTCHAR b
ENCODING 98
SWIDTH 442 0
DWIDTH 6 0
BBX 6 12 0 0
BITMAP
40
40
40
40
40
98
A4
44
84
88
B0
40
ENDCHAR
STARTCHAR c
ENCODING 99
SWIDTH 390 0
DWIDTH 5 0
BBX 5 8 0 0
BITMAP
60
50
80
80
80
88
88
70
ENDCHAR
STARTCHAR d
ENCODING 100
SWIDTH 316 0
DWIDTH 4 0
BBX 4 13 0 -1
BITMAP
10
10
10
10
10
70
50
90
90
90
B0
D0
10
ENDCHAR
STARTCHAR e
ENCODING 101
SWIDTH 461 0
DWIDTH 6 0
BBX 6 7 0 0
BITMAP
38
58
60
C4
44
48
70
ENDCHAR
STARTCHAR f
ENCODING 102
SWIDTH 345 0
DWIDTH 5 0
BBX 5 12 0 0
BITMAP
30
50
40
40
40
78
C0
40
40
40
20
20
ENDCHAR
STARTCHAR g
ENCODING 103
SWIDTH 437 0
DWIDTH 6 0
BBX 6 14 0 -6
BITMAP
18
28
48
58
98
A4
C4
04
04
04
08
08
10
70
ENDCHAR
STARTCHAR h
ENCODING 104
SWIDTH 466 0
DWIDTH 7 0
BBX 6 10 0 0
BITMAP
80
80
80
9C
94
A4
A4
C4
C4
84
ENDCHAR
STARTCHAR i
ENCODING 105
SWIDTH 132 0
DWIDTH 2 0
BBX 1 10 0 0
BITMAP
80
00
80
80
80
80
80
80
80
80
ENDCHAR
STARTCHAR j
ENCODING 106
SWIDTH 112 0
DWIDTH 2 0
BBX 3 16 -2 -5
BITMAP
20
00
00
00
20
20
20
20
20
20
20
20
20
20
A0
60
ENDCHAR
STARTCHAR k
ENCODING 107
SWIDTH 428 0
DWIDTH 6 0
BBX 6 12 0 -1
BITMAP
40
40
40
4C
48
90
B0
A0
C0
B0
8C
80
ENDCHAR
STARTCHAR l
ENCODING 108
SWIDTH 137 0
DWIDTH 2 0
BBX 2 12 0 0
BITMAP
80
80
80
80
40
40
40
40
40
40
40
40
ENDCHAR
STARTCHAR m
ENCODING 109
SWIDTH 579 0
DWIDTH 8 0
BBX 8 8 0 0
BITMAP
80
B6
B6
7A
4A
4A
42
41
ENDCHAR
STARTCHAR n
ENCODING 110
SWIDTH 483 0
DWIDTH 7 0
BBX 6 8 0 0
BITMAP
98
94
A4
64
64
44
44
44
ENDCHAR
STARTCHAR o
ENCODING 111
SWIDTH 266 0
DWIDTH 4 0
BBX 4 8 0 0
BITMAP
40
60
90
90
90
A0
A0
40
ENDCHAR
STARTCHAR p
ENCODING 112
SWIDTH 482 0
DWIDTH 7 0
BBX 7 11 0 -4
BITMAP
9C
E2
84
88
B0
60
80
80
80
80
80
ENDCHAR
STARTCHAR q
ENCODING 113
SWIDTH 408 0
DWIDTH 6 0
BBX 6 10 0 -4
BITMAP
38
48
48
98
B8
48
04
04
04
04
ENDCHAR
STARTCHAR r
ENCODING 114
SWIDTH 396 0
DWIDTH 6 0
BBX 5 7 0 0
BITMAP
98
A0
60
40
40
40
40
ENDCHAR
STARTCHAR s
ENCODING 115
SWIDTH 366 0
DWIDTH 5 0
BBX 5 7 0 0
BITMAP
30
40
80
B8
48
10
60
ENDCHAR
STARTCHAR t
ENCODING 116
SWIDTH 268 0
DWIDTH 4 0
BBX 5 11 -1 0
BITMAP
20
20
20
38
60
A0
20
20
20
20
20
ENDCHAR
STARTCHAR u
ENCODING 117
SWIDTH 387 0
DWIDTH 5 0
BBX 5 7 0 0
BITMAP
88
88
88
88
98
58
68
ENDCHAR
STARTCHAR v
ENCODING 118
SWIDTH 354 0
DWIDTH 5 0
BBX 5 8 0 0
BITMAP
08
08
88
48
48
30
30
10
ENDCHAR
STARTCHAR w
ENCODING 119
SWIDTH 566 0
DWIDTH 8 0
BBX 7 7 0 0
BITMAP
92
5A
5A
56
32
22
10
ENDCHAR
STARTCHAR x
ENCODING 120
SWIDTH 454 0
DWIDTH 6 0
BBX 6 9 0 -1
BITMAP
10
90
50
30
10
28
24
20
40
ENDCHAR
STARTCHAR y
ENCODING 121
SWIDTH 363 0
DWIDTH 5 0
BBX 5 12 0 -5
BITMAP
08
88
48
28
28
18
08
08
08
08
10
10
ENDCHAR
STARTCHAR z
ENCODING 122
SWIDTH 618 0
DWIDTH 9 0
BBX 9 7 0 0
BITMAP
1C00
E800
0800
1000
1000
2380
3C00
ENDCHAR
STARTCHAR braceleft
ENCODING 123
SWIDTH 348 0
DWIDTH 5 0
BBX 5 13 0 -1
BITMAP
38
40
40
40
20
C0
40
C0
80
80
80
40
70
ENDCHAR
STARTCHAR bar
ENCODING 124
SWIDTH 137 0
DWIDTH 2 0
BBX 2 12 0 0
BITMAP
80
80
80
80
40
40
40
40
40
40
40
40
ENDCHAR
STARTCHAR braceright
ENCODING 125
SWIDTH 348 0
DWIDTH 5 0
BBX 4 14 0 -2
BITMAP
40
A0
10
20
20
30
10
20
10
10
10
10
30
40
ENDCHAR
STARTCHAR asciitilde
ENCODING 126
SWIDTH 458 0
DWIDTH 6 0
BBX 5 2 1 8
BITMAP
C8
B0
ENDCHAR
STARTCHAR nonbreakingspace
ENCODING 160
SWIDTH 450 0
DWIDTH 6 0
BBX 1 1 0 0
BITMAP
00
ENDCHAR
STARTCHAR exclamdown
ENCODING 161
SWIDTH 137 0
DWIDTH 2 0
BBX 2 9 0 -2
BITMAP
40
00
00
00
80
80
80
80
80
ENDCHAR
STARTCHAR cent
ENCODING 162
SWIDTH 394 0
DWIDTH 6 0
BBX 5 11 0 -1
BITMAP
20
20
70
70
A0
A0
A0
A8
A8
70
20
ENDCHAR
STARTCHAR sterling
ENCODING 163
SWIDTH 539 0
DWIDTH 8 0
BBX 7 9 0 0
BITMAP
0E
10
20
F8
20
40
40
4C
32
ENDCHAR
STARTCHAR currency
ENCODING 164
SWIDTH 500 0
DWIDTH 7 0
BBX 6 8 0 1
BITMAP
04
38
28
28
28
28
58
88
ENDCHAR
STARTCHAR yen
ENCODING 165
SWIDTH 478 0
DWIDTH 7 0
BBX 5 11 1 0
BITMAP
88
50
50
20
20
28
F0
78
A0
20
20
ENDCHAR
STARTCHAR brokenbar
ENCODING 166
SWIDTH 137 0
DWIDTH 2 0
BBX 2 12 0 0
BITMAP
80
80
80
80
40
00
40
40
40
40
40
40
ENDCHAR
STARTCHAR section
ENCODING 167
SWIDTH 366 0
DWIDTH 5 0
BBX 5 10 0 0
BITMAP
70
80
80
F8
48
90
B8
48
10
60
ENDCHAR
STARTCHAR dieresis
ENCODING 168
SWIDTH 306 0
DWIDTH 4 0
BBX 3 1 1 9
BITMAP
A0
ENDCHAR
STARTCHAR copyright
ENCODING 169
SWIDTH 485 0
DWIDTH 7 0
BBX 7 9 0 0
BITMAP
3C
44
7A
A2
A4
AC
94
88
70
ENDCHAR
STARTCHAR ordfeminine
ENCODING 170
SWIDTH 227 0
DWIDTH 3 0
BBX 3 4 0 2
BITMAP
60
A0
E0
A0
ENDCHAR
STARTCHAR guillemotleft
ENCODING 171
SWIDTH 652 0
DWIDTH 9 0
BBX 7 7 1 2
BITMAP
0A
14
68
90
B0
68
16
ENDCHAR
STARTCHAR logicalnot
ENCODING 172
SWIDTH 539 0
DWIDTH 8 0
BBX 6 4 1 2
BITMAP
7C
84
04
04
ENDCHAR
STARTCHAR uni00AD
ENCODING 173
SWIDTH 399 0
DWIDTH 6 0
BBX 5 2 0 3
BITMAP
08
F0
ENDCHAR
STARTCHAR registered
ENCODING 174
SWIDTH 382 0
DWIDTH 5 0
BBX 7 9 0 0
BITMAP
38
44
7A
AA
B2
BC
A4
88
70
ENDCHAR
STARTCHAR macron
ENCODING 175
SWIDTH 399 0
DWIDTH 6 0
BBX 5 1 0 9
BITMAP
F8
ENDCHAR
STARTCHAR degree
ENCODING 176
SWIDTH 201 0
DWIDTH 3 0
BBX 3 3 0 5
BITMAP
40
A0
40
ENDCHAR
STARTCHAR plusminus
ENCODING 177
SWIDTH 466 0
DWIDTH 7 0
BBX 5 7 0 1
BITMAP
20
20
20
38
E0
20
78
ENDCHAR
STARTCHAR twosuperior
ENCODING 178
SWIDTH 318 0
DWIDTH 4 0
BBX 4 5 0 2
BITMAP
40
A0
20
40
70
ENDCHAR
STARTCHAR threesuperior
ENCODING 179
SWIDTH 280 0
DWIDTH 4 0
BBX 4 5 0 2
BITMAP
E0
60
90
10
60
ENDCHAR
STARTCHAR acute
ENCODING 180
SWIDTH 155 0
DWIDTH 2 0
BBX 2 2 0 8
BITMAP
40
80
ENDCHAR
STARTCHAR mu
ENCODING 181
SWIDTH 387 0
DWIDTH 5 0
BBX 5 10 0 -2
BITMAP
80
88
88
88
98
98
E8
80
80
80
ENDCHAR
STARTCHAR paragraph
ENCODING 182
SWIDTH 447 0
DWIDTH 6 0
BBX 6 9 0 0
BITMAP
78
F4
F4
14
14
14
0C
0C
0C
ENDCHAR
STARTCHAR periodcentered
ENCODING 183
SWIDTH 128 0
DWIDTH 2 0
BBX 1 1 0 3
BITMAP
80
ENDCHAR
STARTCHAR cedilla
ENCODING 184
SWIDTH 322 0
DWIDTH 5 0
BBX 3 5 1 -4
BITMAP
80
80
C0
20
E0
ENDCHAR
STARTCHAR onesuperior
ENCODING 185
SWIDTH 112 0
DWIDTH 2 0
BBX 1 5 0 2
BITMAP
80
80
80
80
80
ENDCHAR
STARTCHAR ordmasculine
ENCODING 186
SWIDTH 212 0
DWIDTH 3 0
BBX 3 4 0 2
BITMAP
40
A0
A0
C0
ENDCHAR
STARTCHAR guillemotright
ENCODING 187
SWIDTH 625 0
DWIDTH 9 0
BBX 7 7 1 2
BITMAP
B0
6C
12
12
24
58
A0
ENDCHAR
STARTCHAR onequarter
ENCODING 188
SWIDTH 678 0
DWIDTH 10 0
BBX 9 11 0 -1
BITMAP
1000
1000
9000
A200
A600
AA00
AF80
7200
4200
4200
8000
ENDCHAR
STARTCHAR onehalf
ENCODING 189
SWIDTH 693 0
DWIDTH 10 0
BBX 8 11 1 -1
BITMAP
10
10
A0
A0
B8
A4
C4
C8
4B
9C
80
ENDCHAR
STARTCHAR threequarters
ENCODING 190
SWIDTH 868 0
DWIDTH 12 0
BBX 9 11 1 -1
BITMAP
0200
E200
2200
6600
9500
1580
2E00
4900
0900
1100
1000
ENDCHAR
STARTCHAR questiondown
ENCODING 191
SWIDTH 541 0
DWIDTH 8 0
BBX 6 12 1 -1
BITMAP
10
00
00
00
10
08
10
20
40
80
8C
70
ENDCHAR
STARTCHAR Agrave
ENCODING 192
SWIDTH 390 0
DWIDTH 5 0
BBX 6 12 1 0
BITMAP
40
C0
40
C0
A0
A0
A0
9C
F0
90
90
88
ENDCHAR
STARTCHAR Aacute
ENCODING 193
SWIDTH 390 0
DWIDTH 5 0
BBX 7 13 0 0
BITMAP
20
40
40
60
60
60
50
50
5E
70
48
88
88
ENDCHAR
STARTCHAR Acircumflex
ENCODING 194
SWIDTH 390 0
DWIDTH 5 0
BBX 7 14 0 0
BITMAP
40
A0
90
C0
60
60
60
50
50
5E
70
48
88
88
ENDCHAR
STARTCHAR Atilde
ENCODING 195
SWIDTH 390 0
DWIDTH 5 0
BBX 7 14 0 0
BITMAP
E8
B8
00
40
60
60
60
50
50
5E
70
48
88
88
ENDCHAR
STARTCHAR Adieresis
ENCODING 196
SWIDTH 390 0
DWIDTH 5 0
BBX 7 12 0 0
BITMAP
50
40
60
60
60
50
50
5E
70
48
88
88
ENDCHAR
STARTCHAR Aring
ENCODING 197
SWIDTH 390 0
DWIDTH 5 0
BBX 7 12 0 0
BITMAP
E0
E0
60
60
60
50
50
5E
70
48
88
88
ENDCHAR
STARTCHAR AE
ENCODING 198
SWIDTH 708 0
DWIDTH 10 0
BBX 10 11 0 0
BITMAP
4000
6B80
6C00
6800
5880
5B00
5C00
7840
4980
8A00
8C00
ENDCHAR
STARTCHAR Ccedilla
ENCODING 199
SWIDTH 487 0
DWIDTH 7 0
BBX 6 14 0 -4
BITMAP
38
20
40
40
40
80
84
84
88
70
20
30
08
38
ENDCHAR
STARTCHAR Egrave
ENCODING 200
SWIDTH 474 0
DWIDTH 7 0
BBX 6 12 0 0
BITMAP
20
24
98
60
40
48
50
60
44
48
50
60
ENDCHAR
STARTCHAR Eacute
ENCODING 201
SWIDTH 474 0
DWIDTH 7 0
BBX 6 12 0 0
BITMAP
10
24
98
60
40
48
50
60
44
48
50
60
ENDCHAR
STARTCHAR Ecircumflex
ENCODING 202
SWIDTH 474 0
DWIDTH 7 0
BBX 6 15 0 0
BITMAP
10
28
44
40
04
98
60
40
48
50
60
44
48
50
60
ENDCHAR
STARTCHAR Edieresis
ENCODING 203
SWIDTH 474 0
DWIDTH 7 0
BBX 6 12 0 0
BITMAP
38
04
98
60
40
48
50
60
44
48
50
60
ENDCHAR
STARTCHAR Igrave
ENCODING 204
SWIDTH 153 0
DWIDTH 2 0
BBX 2 13 0 0
BITMAP
80
40
00
40
40
40
40
40
40
40
40
40
40
ENDCHAR
STARTCHAR Iacute
ENCODING 205
SWIDTH 153 0
DWIDTH 2 0
BBX 2 13 0 0
BITMAP
40
80
00
40
40
40
40
40
40
40
40
40
40
ENDCHAR
STARTCHAR Icircumflex
ENCODING 206
SWIDTH 153 0
DWIDTH 2 0
BBX 5 14 -1 0
BITMAP
20
50
98
80
20
20
20
20
20
20
20
20
20
20
ENDCHAR
STARTCHAR Idieresis
ENCODING 207
SWIDTH 153 0
DWIDTH 2 0
BBX 3 12 0 0
BITMAP
A0
00
40
40
40
40
40
40
40
40
40
40
ENDCHAR
STARTCHAR Eth
ENCODING 208
SWIDTH 554 0
DWIDTH 8 0
BBX 7 10 0 0
BITMAP
78
C6
42
42
42
42
F4
28
30
20
ENDCHAR
STARTCHAR Ntilde
ENCODING 209
SWIDTH 541 0
DWIDTH 8 0
BBX 7 13 0 0
BITMAP
64
98
04
02
82
42
62
52
52
4A
46
42
40
ENDCHAR
STARTCHAR Ograve
ENCODING 210
SWIDTH 382 0
DWIDTH 5 0
BBX 5 12 0 0
BITMAP
10
08
00
38
48
48
88
88
88
88
90
60
ENDCHAR
STARTCHAR Oacute
ENCODING 211
SWIDTH 382 0
DWIDTH 5 0
BBX 5 12 0 0
BITMAP
20
20
00
38
48
48
88
88
88
88
90
60
ENDCHAR
STARTCHAR Ocircumflex
ENCODING 212
SWIDTH 382 0
DWIDTH 5 0
BBX 5 13 0 0
BITMAP
20
50
48
80
38
48
48
88
88
88
88
90
60
ENDCHAR
STARTCHAR Otilde
ENCODING 213
SWIDTH 382 0
DWIDTH 5 0
BBX 6 12 0 0
BITMAP
64
58
00
38
48
48
88
88
88
88
90
60
ENDCHAR
STARTCHAR Odieresis
ENCODING 214
SWIDTH 382 0
DWIDTH 5 0
BBX 5 11 0 0
BITMAP
28
00
38
48
48
88
88
88
88
90
60
ENDCHAR
STARTCHAR multiply
ENCODING 215
SWIDTH 454 0
DWIDTH 6 0
BBX 4 5 1 2
BITMAP
80
90
60
60
B0
ENDCHAR
STARTCHAR Oslash
ENCODING 216
SWIDTH 382 0
DWIDTH 5 0
BBX 5 11 0 -1
BITMAP
08
38
58
58
A8
A8
A8
A8
D0
60
40
ENDCHAR
STARTCHAR Ugrave
ENCODING 217
SWIDTH 450 0
DWIDTH 6 0
BBX 6 13 0 -2
BITMAP
20
10
04
84
84
84
8C
8C
8C
54
64
04
04
ENDCHAR
STARTCHAR Uacute
ENCODING 218
SWIDTH 450 0
DWIDTH 6 0
BBX 6 12 0 -2
BITMAP
10
24
84
84
84
8C
8C
8C
54
64
04
04
ENDCHAR
STARTCHAR Ucircumflex
ENCODING 219
SWIDTH 450 0
DWIDTH 6 0
BBX 6 15 0 -2
BITMAP
20
30
4C
40
04
84
84
84
8C
8C
8C
54
64
04
04
ENDCHAR
STARTCHAR Udieresis
ENCODING 220
SWIDTH 450 0
DWIDTH 6 0
BBX 6 12 0 -2
BITMAP
28
04
84
84
84
8C
8C
8C
54
64
04
04
ENDCHAR
STARTCHAR Yacute
ENCODING 221
SWIDTH 483 0
DWIDTH 7 0
BBX 7 13 0 0
BITMAP
08
10
02
04
84
44
48
28
18
10
10
10
20
ENDCHAR
STARTCHAR Thorn
ENCODING 222
SWIDTH 398 0
DWIDTH 6 0
BBX 5 11 0 0
BITMAP
40
80
B8
48
88
88
90
E0
80
80
80
ENDCHAR
STARTCHAR germandbls
ENCODING 223
SWIDTH 537 0
DWIDTH 8 0
BBX 7 10 0 0
BITMAP
38
C8
48
5E
62
42
44
48
50
40
ENDCHAR
STARTCHAR agrave
ENCODING 224
SWIDTH 366 0
DWIDTH 5 0
BBX 5 10 0 0
BITMAP
20
20
10
30
50
50
98
A8
C8
88
ENDCHAR
STARTCHAR aacute
ENCODING 225
SWIDTH 366 0
DWIDTH 5 0
BBX 5 10 0 0
BITMAP
10
20
10
30
50
50
98
A8
C8
88
ENDCHAR
STARTCHAR acircumflex
ENCODING 226
SWIDTH 366 0
DWIDTH 5 0
BBX 5 13 0 0
BITMAP
20
50
88
80
00
10
30
50
50
98
A8
C8
88
ENDCHAR
STARTCHAR atilde
ENCODING 227
SWIDTH 366 0
DWIDTH 5 0
BBX 6 11 0 0
BITMAP
64
98
00
10
30
50
50
98
A8
C8
88
ENDCHAR
STARTCHAR adieresis
ENCODING 228
SWIDTH 366 0
DWIDTH 5 0
BBX 5 10 0 0
BITMAP
50
00
10
30
50
50
98
A8
C8
88
ENDCHAR
STARTCHAR aring
ENCODING 229
SWIDTH 366 0
DWIDTH 5 0
BBX 5 10 0 0
BITMAP
30
48
70
30
50
50
98
A8
C8
88
ENDCHAR
STARTCHAR ae
ENCODING 230
SWIDTH 705 0
DWIDTH 10 0
BBX 10 8 0 0
BITMAP
1300
3480
5B00
5C00
9840
A880
C900
8E00
ENDCHAR
STARTCHAR ccedilla
ENCODING 231
SWIDTH 390 0
DWIDTH 5 0
BBX 5 12 0 -4
BITMAP
60
50
80
80
80
88
88
70
40
20
18
78
ENDCHAR
STARTCHAR egrave
ENCODING 232
SWIDTH 461 0
DWIDTH 6 0
BBX 6 10 0 0
BITMAP
20
10
10
28
58
60
C4
44
48
70
ENDCHAR
STARTCHAR eacute
ENCODING 233
SWIDTH 461 0
DWIDTH 6 0
BBX 6 10 0 0
BITMAP
10
10
10
28
58
60
C4
44
48
70
ENDCHAR
STARTCHAR ecircumflex
ENCODING 234
SWIDTH 461 0
DWIDTH 6 0
BBX 6 13 0 0
BITMAP
30
30
4C
40
00
10
28
58
60
C4
44
48
70
ENDCHAR
STARTCHAR edieresis
ENCODING 235
SWIDTH 461 0
DWIDTH 6 0
BBX 6 10 0 0
BITMAP
28
00
10
28
58
60
C4
44
48
70
ENDCHAR
STARTCHAR igrave
ENCODING 236
SWIDTH 132 0
DWIDTH 2 0
BBX 1 11 0 0
BITMAP
80
80
00
80
80
80
80
80
80
80
80
ENDCHAR
STARTCHAR iacute
ENCODING 237
SWIDTH 132 0
DWIDTH 2 0
BBX 2 12 0 0
BITMAP
40
C0
00
00
80
80
80
80
80
80
80
80
ENDCHAR
STARTCHAR icircumflex
ENCODING 238
SWIDTH 132 0
DWIDTH 2 0
BBX 5 13 -2 0
BITMAP
20
50
48
80
00
20
20
20
20
20
20
20
20
ENDCHAR
STARTCHAR idieresis
ENCODING 239
SWIDTH 132 0
DWIDTH 2 0
BBX 2 10 0 0
BITMAP
C0
00
80
80
80
80
80
80
80
80
ENDCHAR
STARTCHAR eth
ENCODING 240
SWIDTH 481 0
DWIDTH 7 0
BBX 6 9 1 0
BITMAP
40
20
2C
70
10
F0
90
90
60
ENDCHAR
STARTCHAR ntilde
ENCODING 241
SWIDTH 483 0
DWIDTH 7 0
BBX 6 12 0 0
BITMAP
74
5C
00
00
98
94
A4
64
64
44
44
44
ENDCHAR
STARTCHAR ograve
ENCODING 242
SWIDTH 266 0
DWIDTH 4 0
BBX 4 10 0 0
BITMAP
40
20
40
60
90
90
90
A0
A0
40
ENDCHAR
STARTCHAR oacute
ENCODING 243
SWIDTH 266 0
DWIDTH 4 0
BBX 4 10 0 0
BITMAP
20
40
40
60
90
90
90
A0
A0
40
ENDCHAR
STARTCHAR ocircumflex
ENCODING 244
SWIDTH 266 0
DWIDTH 4 0
BBX 5 13 -1 0
BITMAP
20
50
48
80
00
20
30
48
48
48
50
50
20
ENDCHAR
STARTCHAR otilde
ENCODING 245
SWIDTH 266 0
DWIDTH 4 0
BBX 5 11 0 0
BITMAP
C8
B0
00
40
60
90
90
90
A0
A0
40
ENDCHAR
STARTCHAR odieresis
ENCODING 246
SWIDTH 266 0
DWIDTH 4 0
BBX 4 10 0 0
BITMAP
E0
00
40
60
90
90
90
A0
A0
40
ENDCHAR
STARTCHAR divide
ENCODING 247
SWIDTH 345 0
DWIDTH 5 0
BBX 4 4 0 2
BITMAP
20
30
C0
20
ENDCHAR
STARTCHAR oslash
ENCODING 248
SWIDTH 266 0
DWIDTH 4 0
BBX 4 9 0 -1
BITMAP
50
60
A0
B0
D0
E0
A0
C0
80
ENDCHAR
STARTCHAR ugrave
ENCODING 249
SWIDTH 387 0
DWIDTH 5 0
BBX 5 10 0 0
BITMAP
20
20
00
88
88
88
88
98
58
68
ENDCHAR
STARTCHAR uacute
ENCODING 250
SWIDTH 387 0
DWIDTH 5 0
BBX 5 10 0 0
BITMAP
10
20
00
88
88
88
88
98
58
68
ENDCHAR
STARTCHAR ucircumflex
ENCODING 251
SWIDTH 387 0
DWIDTH 5 0
BBX 5 13 0 0
BITMAP
20
50
48
80
00
00
88
88
88
88
98
58
68
ENDCHAR
STARTCHAR udieresis
ENCODING 252
SWIDTH 387 0
DWIDTH 5 0
BBX 5 10 0 0
BITMAP
50
00
00
88
88
88
88
98
58
68
ENDCHAR
STARTCHAR yacute
ENCODING 253
SWIDTH 363 0
DWIDTH 5 0
BBX 5 15 0 -5
BITMAP
10
20
00
08
88
48
28
28
18
08
08
08
08
10
10
ENDCHAR
STARTCHAR thorn
ENCODING 254
SWIDTH 439 0
DWIDTH 6 0
BBX 6 9 0 0
BITMAP
98
A4
C4
88
90
60
80
80
80
ENDCHAR
STARTCHAR ydieresis
ENCODING 255
SWIDTH 363 0
DWIDTH 5 0
BBX 5 15 0 -5
BITMAP
50
00
00
08
88
48
28
28
18
08
08
08
08
10
10
ENDCHAR
STARTCHAR Amacron
ENCODING 256
SWIDTH 390 0
DWIDTH 5 0
BBX 7 12 0 0
BITMAP
F8
40
60
60
60
50
50
5E
70
48
88
88
ENDCHAR
STARTCHAR amacron
ENCODING 257
SWIDTH 366 0
DWIDTH 5 0
BBX 5 10 0 0
BITMAP
F8
00
10
30
50
50
98
A8
C8
88
ENDCHAR
STARTCHAR Abreve
ENCODING 258
SWIDTH 390 0
DWIDTH 5 0
BBX 7 13 0 0
BITMAP
50
20
40
60
60
60
50
50
5E
70
48
88
88
ENDCHAR
STARTCHAR abreve
ENCODING 259
SWIDTH 366 0
DWIDTH 5 0
BBX 5 10 0 0
BITMAP
50
20
10
30
50
50
98
A8
C8
88
ENDCHAR
STARTCHAR Aogonek
ENCODING 260
SWIDTH 390 0
DWIDTH 5 0
BBX 7 14 0 -3
BITMAP
40
60
60
60
50
50
5E
70
48
88
88
08
10
1E
ENDCHAR
STARTCHAR aogonek
ENCODING 261
SWIDTH 366 0
DWIDTH 5 0
BBX 6 11 0 -3
BITMAP
10
30
50
50
98
A8
C8
88
10
10
1C
ENDCHAR
STARTCHAR Cacute
ENCODING 262
SWIDTH 487 0
DWIDTH 7 0
BBX 6 12 0 0
BITMAP
10
10
38
20
40
40
40
80
84
84
88
70
ENDCHAR
STARTCHAR cacute
ENCODING 263
SWIDTH 390 0
DWIDTH 5 0
BBX 5 11 0 0
BITMAP
20
20
00
60
50
80
80
80
88
88
70
ENDCHAR
STARTCHAR Ccircumflex
ENCODING 264
SWIDTH 487 0
DWIDTH 7 0
BBX 6 14 0 0
BITMAP
10
28
4C
40
38
20
40
40
40
80
84
84
88
70
ENDCHAR
STARTCHAR ccircumflex
ENCODING 265
SWIDTH 390 0
DWIDTH 5 0
BBX 5 13 0 0
BITMAP
20
50
48
80
00
60
50
80
80
80
88
88
70
ENDCHAR
STARTCHAR Cdotaccent
ENCODING 266
SWIDTH 487 0
DWIDTH 7 0
BBX 6 13 0 0
BITMAP
10
00
00
38
20
40
40
40
80
84
84
88
70
ENDCHAR
STARTCHAR cdotaccent
ENCODING 267
SWIDTH 390 0
DWIDTH 5 0
BBX 5 10 0 0
BITMAP
20
00
60
50
80
80
80
88
88
70
ENDCHAR
STARTCHAR Ccaron
ENCODING 268
SWIDTH 487 0
DWIDTH 7 0
BBX 6 13 0 0
BITMAP
44
38
00
38
20
40
40
40
80
84
84
88
70
ENDCHAR
STARTCHAR ccaron
ENCODING 269
SWIDTH 390 0
DWIDTH 5 0
BBX 5 11 0 0
BITMAP
C8
50
20
60
50
80
80
80
88
88
70
ENDCHAR
STARTCHAR Dcaron
ENCODING 270
SWIDTH 554 0
DWIDTH 8 0
BBX 7 13 0 0
BITMAP
24
18
00
78
C6
42
42
42
42
24
28
30
20
ENDCHAR
STARTCHAR Emacron
ENCODING 274
SWIDTH 474 0
DWIDTH 7 0
BBX 6 12 0 0
BITMAP
F8
04
98
60
40
48
50
60
44
48
50
60
ENDCHAR
STARTCHAR emacron
ENCODING 275
SWIDTH 461 0
DWIDTH 6 0
BBX 6 10 0 0
BITMAP
7C
00
10
28
58
60
C4
44
48
70
ENDCHAR
STARTCHAR Ebreve
ENCODING 276
SWIDTH 474 0
DWIDTH 7 0
BBX 6 13 0 0
BITMAP
28
10
04
98
60
40
48
50
60
44
48
50
60
ENDCHAR
STARTCHAR ebreve
ENCODING 277
SWIDTH 461 0
DWIDTH 6 0
BBX 6 10 0 0
BITMAP
28
10
10
28
58
60
C4
44
48
70
ENDCHAR
STARTCHAR Edotaccent
ENCODING 278
SWIDTH 474 0
DWIDTH 7 0
BBX 6 12 0 0
BITMAP
20
04
98
60
40
48
50
60
44
48
50
60
ENDCHAR
STARTCHAR edotaccent
ENCODING 279
SWIDTH 461 0
DWIDTH 6 0
BBX 6 9 0 0
BITMAP
10
10
28
58
60
C4
44
48
70
ENDCHAR
STARTCHAR Eogonek
ENCODING 280
SWIDTH 474 0
DWIDTH 7 0
BBX 6 11 0 -1
BITMAP
9C
60
40
48
50
60
44
48
50
70
1C
ENDCHAR
STARTCHAR eogonek
ENCODING 281
SWIDTH 461 0
DWIDTH 6 0
BBX 6 10 0 -3
BITMAP
38
58
60
C4
44
48
70
20
20
38
ENDCHAR
STARTCHAR Ecaron
ENCODING 282
SWIDTH 474 0
DWIDTH 7 0
BBX 6 13 0 0
BITMAP
48
30
04
98
60
40
48
50
60
44
48
50
60
ENDCHAR
STARTCHAR ecaron
ENCODING 283
SWIDTH 461 0
DWIDTH 6 0
BBX 6 11 0 0
BITMAP
4C
30
00
10
28
58
60
C4
44
48
70
ENDCHAR
STARTCHAR Gcircumflex
ENCODING 284
SWIDTH 591 0
DWIDTH 8 0
BBX 8 15 0 -2
BITMAP
10
18
26
40
0C
10
20
43
4E
82
86
8A
72
02
02
ENDCHAR
STARTCHAR gcircumflex
ENCODING 285
SWIDTH 437 0
DWIDTH 6 0
BBX 6 19 0 -6
BITMAP
20
30
4C
80
00
18
28
48
58
98
A4
C4
04
04
04
08
08
10
70
ENDCHAR
STARTCHAR Gbreve
ENCODING 286
SWIDTH 591 0
DWIDTH 8 0
BBX 8 13 0 -2
BITMAP
14
08
0C
10
20
43
4E
82
86
8A
72
02
02
ENDCHAR
STARTCHAR gbreve
ENCODING 287
SWIDTH 437 0
DWIDTH 6 0
BBX 6 17 0 -6
BITMAP
28
10
00
18
28
48
58
98
A4
C4
04
04
04
08
08
10
70
ENDCHAR
STARTCHAR Gdotaccent
ENCODING 288
SWIDTH 591 0
DWIDTH 8 0
BBX 7 14 1 -2
BITMAP
10
00
00
18
20
40
42
8E
84
8C
94
E4
04
04
ENDCHAR
STARTCHAR gdotaccent
ENCODING 289
SWIDTH 437 0
DWIDTH 6 0
BBX 6 16 0 -6
BITMAP
10
00
18
28
48
58
98
A4
C4
04
04
04
08
08
10
70
ENDCHAR
STARTCHAR Gcommaaccent
ENCODING 290
SWIDTH 591 0
DWIDTH 8 0
BBX 8 14 0 -5
BITMAP
0C
10
20
43
4E
82
86
8A
72
02
0A
08
08
10
ENDCHAR
STARTCHAR Hcircumflex
ENCODING 292
SWIDTH 424 0
DWIDTH 6 0
BBX 5 14 0 0
BITMAP
20
50
48
80
00
88
88
88
88
98
68
88
88
48
ENDCHAR
STARTCHAR hcircumflex
ENCODING 293
SWIDTH 466 0
DWIDTH 7 0
BBX 7 13 0 0
BITMAP
18
14
26
A0
80
80
9C
94
A4
A4
C4
C4
84
ENDCHAR
STARTCHAR Hbar
ENCODING 294
SWIDTH 424 0
DWIDTH 6 0
BBX 5 9 0 0
BITMAP
88
88
F8
88
98
68
88
88
48
ENDCHAR
STARTCHAR hbar
ENCODING 295
SWIDTH 466 0
DWIDTH 7 0
BBX 7 10 -1 0
BITMAP
40
40
78
CE
4A
52
52
62
62
42
ENDCHAR
STARTCHAR Itilde
ENCODING 296
SWIDTH 153 0
DWIDTH 2 0
BBX 5 14 -1 0
BITMAP
C8
B0
00
00
20
20
20
20
20
20
20
20
20
20
ENDCHAR
STARTCHAR itilde
ENCODING 297
SWIDTH 132 0
DWIDTH 2 0
BBX 6 11 -2 0
BITMAP
64
98
00
20
20
20
20
20
20
20
20
ENDCHAR
STARTCHAR imacron
ENCODING 299
SWIDTH 132 0
DWIDTH 2 0
BBX 5 10 -2 0
BITMAP
F8
00
20
20
20
20
20
20
20
20
ENDCHAR
STARTCHAR Ibreve
ENCODING 300
SWIDTH 153 0
DWIDTH 2 0
BBX 3 13 0 0
BITMAP
A0
40
00
40
40
40
40
40
40
40
40
40
40
ENDCHAR
STARTCHAR ibreve
ENCODING 301
SWIDTH 132 0
DWIDTH 2 0
BBX 4 11 -1 0
BITMAP
90
60
00
40
40
40
40
40
40
40
40
ENDCHAR
STARTCHAR Iogonek
ENCODING 302
SWIDTH 153 0
DWIDTH 2 0
BBX 3 13 0 -3
BITMAP
40
40
40
40
40
40
40
40
40
40
80
A0
60
ENDCHAR
STARTCHAR iogonek
ENCODING 303
SWIDTH 132 0
DWIDTH 2 0
BBX 3 13 0 -3
BITMAP
80
00
80
80
80
80
80
80
80
80
80
80
E0
ENDCHAR
STARTCHAR Idotaccent
ENCODING 304
SWIDTH 153 0
DWIDTH 2 0
BBX 1 13 1 0
BITMAP
80
00
00
80
80
80
80
80
80
80
80
80
80
ENDCHAR
STARTCHAR dotlessi
ENCODING 305
SWIDTH 132 0
DWIDTH 2 0
BBX 1 8 0 0
BITMAP
80
80
80
80
80
80
80
80
ENDCHAR
STARTCHAR Jcircumflex
ENCODING 308
SWIDTH 371 0
DWIDTH 5 0
BBX 6 15 0 -1
BITMAP
10
28
44
40
10
10
10
10
08
08
08
08
88
88
70
ENDCHAR
STARTCHAR jcircumflex
ENCODING 309
SWIDTH 112 0
DWIDTH 2 0
BBX 5 18 -2 -5
BITMAP
20
50
48
80
00
00
20
20
20
20
20
20
10
10
10
20
A0
60
ENDCHAR
STARTCHAR Kcommaaccent
ENCODING 310
SWIDTH 524 0
DWIDTH 7 0
BBX 7 14 0 -5
BITMAP
84
48
50
60
60
40
7E
40
40
00
10
10
10
10
ENDCHAR
STARTCHAR kcommaaccent
ENCODING 311
SWIDTH 428 0
DWIDTH 6 0
BBX 6 16 0 -5
BITMAP
40
40
40
4C
48
90
B0
A0
C0
B0
8C
80
20
20
20
20
ENDCHAR
STARTCHAR Lacute
ENCODING 313
SWIDTH 537 0
DWIDTH 8 0
BBX 7 10 0 0
BITMAP
08
90
80
80
40
40
40
46
58
60
ENDCHAR
STARTCHAR lacute
ENCODING 314
SWIDTH 137 0
DWIDTH 2 0
BBX 2 15 0 0
BITMAP
40
80
00
80
80
80
80
40
40
40
40
40
40
40
40
ENDCHAR
STARTCHAR Lcommaaccent
ENCODING 315
SWIDTH 537 0
DWIDTH 8 0
BBX 7 14 0 -5
BITMAP
80
80
80
40
40
40
46
58
60
00
10
10
10
10
ENDCHAR
STARTCHAR lcommaaccent
ENCODING 316
SWIDTH 137 0
DWIDTH 2 0
BBX 2 17 0 -5
BITMAP
80
80
80
80
40
40
40
40
40
40
40
40
00
80
80
80
80
ENDCHAR
STARTCHAR Lcaron
ENCODING 317
SWIDTH 537 0
DWIDTH 8 0
BBX 7 13 0 0
BITMAP
48
30
00
00
80
80
80
40
40
40
46
58
60
ENDCHAR
STARTCHAR Ldot
ENCODING 319
SWIDTH 537 0
DWIDTH 8 0
BBX 7 9 0 0
BITMAP
80
80
80
40
40
50
46
58
60
ENDCHAR
STARTCHAR ldot
ENCODING 320
SWIDTH 267 0
DWIDTH 4 0
BBX 3 12 0 0
BITMAP
80
80
80
80
40
40
40
40
60
40
40
40
ENDCHAR
STARTCHAR Lslash
ENCODING 321
SWIDTH 537 0
DWIDTH 8 0
BBX 8 9 -1 0
BITMAP
40
40
40
40
2C
F0
23
2C
30
ENDCHAR
STARTCHAR lslash
ENCODING 322
SWIDTH 137 0
DWIDTH 2 0
BBX 6 12 -2 0
BITMAP
20
20
20
20
10
10
10
14
38
D0
10
10
ENDCHAR
STARTCHAR Nacute
ENCODING 323
SWIDTH 541 0
DWIDTH 8 0
BBX 7 12 0 0
BITMAP
10
24
02
82
42
62
52
52
4A
46
42
40
ENDCHAR
STARTCHAR nacute
ENCODING 324
SWIDTH 483 0
DWIDTH 7 0
BBX 6 10 0 0
BITMAP
10
20
98
94
A4
64
64
44
44
44
ENDCHAR
STARTCHAR Ncommaaccent
ENCODING 325
SWIDTH 541 0
DWIDTH 8 0
BBX 7 16 0 -5
BITMAP
04
02
82
42
62
52
52
4A
46
42
40
00
10
10
10
10
ENDCHAR
STARTCHAR ncommaaccent
ENCODING 326
SWIDTH 483 0
DWIDTH 7 0
BBX 6 13 0 -5
BITMAP
98
94
A4
64
64
44
44
44
00
10
10
10
20
ENDCHAR
STARTCHAR Ncaron
ENCODING 327
SWIDTH 541 0
DWIDTH 8 0
BBX 7 12 0 0
BITMAP
44
2C
12
82
42
62
52
52
4A
46
42
40
ENDCHAR
STARTCHAR ncaron
ENCODING 328
SWIDTH 483 0
DWIDTH 7 0
BBX 6 11 0 0
BITMAP
4C
30
00
98
94
A4
64
64
44
44
44
ENDCHAR
STARTCHAR napostrophe
ENCODING 329
SWIDTH 483 0
DWIDTH 7 0
BBX 6 13 0 0
BITMAP
20
20
20
40
00
98
94
A4
64
64
44
44
44
ENDCHAR
STARTCHAR Omacron
ENCODING 332
SWIDTH 382 0
DWIDTH 5 0
BBX 6 11 0 0
BITMAP
7C
00
38
48
48
88
88
88
88
90
60
ENDCHAR
STARTCHAR omacron
ENCODING 333
SWIDTH 266 0
DWIDTH 4 0
BBX 5 10 -1 0
BITMAP
F8
00
20
30
48
48
48
50
50
20
ENDCHAR
STARTCHAR Obreve
ENCODING 334
SWIDTH 382 0
DWIDTH 5 0
BBX 5 12 0 0
BITMAP
50
20
00
38
48
48
88
88
88
88
90
60
ENDCHAR
STARTCHAR obreve
ENCODING 335
SWIDTH 266 0
DWIDTH 4 0
BBX 4 10 0 0
BITMAP
90
60
40
60
90
90
90
A0
A0
40
ENDCHAR
STARTCHAR Ohungarumlaut
ENCODING 336
SWIDTH 382 0
DWIDTH 5 0
BBX 5 13 0 0
BITMAP
10
38
08
00
38
48
48
88
88
88
88
90
60
ENDCHAR
STARTCHAR ohungarumlaut
ENCODING 337
SWIDTH 266 0
DWIDTH 4 0
BBX 4 11 0 0
BITMAP
40
70
20
40
60
90
90
90
A0
A0
40
ENDCHAR
STARTCHAR OE
ENCODING 338
SWIDTH 732 0
DWIDTH 10 0
BBX 10 10 0 0
BITMAP
0980
3E00
4800
4880
8900
8E00
8800
88C0
9500
6600
ENDCHAR
STARTCHAR oe
ENCODING 339
SWIDTH 628 0
DWIDTH 9 0
BBX 9 8 0 0
BITMAP
4600
6900
9A00
9C00
9080
9100
B200
4C00
ENDCHAR
STARTCHAR Racute
ENCODING 340
SWIDTH 503 0
DWIDTH 7 0
BBX 6 13 1 0
BITMAP
10
20
B8
C4
88
B0
C0
80
C0
B0
8C
80
80
ENDCHAR
STARTCHAR racute
ENCODING 341
SWIDTH 396 0
DWIDTH 6 0
BBX 5 10 0 0
BITMAP
10
20
00
98
A0
60
40
40
40
40
ENDCHAR
STARTCHAR Rcommaaccent
ENCODING 342
SWIDTH 503 0
DWIDTH 7 0
BBX 6 16 1 -5
BITMAP
B8
C4
88
B0
C0
80
C0
B0
8C
80
80
00
20
20
20
20
ENDCHAR
STARTCHAR rcommaaccent
ENCODING 343
SWIDTH 396 0
DWIDTH 6 0
BBX 5 12 0 -5
BITMAP
98
A0
60
40
40
40
40
00
20
20
20
20
ENDCHAR
STARTCHAR Rcaron
ENCODING 344
SWIDTH 503 0
DWIDTH 7 0
BBX 6 14 1 0
BITMAP
C8
50
20
B8
C4
88
B0
C0
80
C0
B0
8C
80
80
ENDCHAR
STARTCHAR rcaron
ENCODING 345
SWIDTH 396 0
DWIDTH 6 0
BBX 5 11 0 0
BITMAP
C8
50
20
00
98
A0
60
40
40
40
40
ENDCHAR
STARTCHAR Sacute
ENCODING 346
SWIDTH 541 0
DWIDTH 8 0
BBX 7 12 0 0
BITMAP
08
10
1C
20
40
80
80
60
1E
02
0C
30
ENDCHAR
STARTCHAR sacute
ENCODING 347
SWIDTH 366 0
DWIDTH 5 0
BBX 5 10 0 0
BITMAP
10
20
00
30
40
80
B8
48
10
60
ENDCHAR
STARTCHAR Scircumflex
ENCODING 348
SWIDTH 541 0
DWIDTH 8 0
BBX 7 14 0 0
BITMAP
10
18
26
40
1C
20
40
80
80
60
1E
02
0C
30
ENDCHAR
STARTCHAR scircumflex
ENCODING 349
SWIDTH 366 0
DWIDTH 5 0
BBX 5 11 0 0
BITMAP
20
50
48
80
30
40
80
B8
48
10
60
ENDCHAR
STARTCHAR Scedilla
ENCODING 350
SWIDTH 541 0
DWIDTH 8 0
BBX 8 14 0 -4
BITMAP
1C
20
40
80
80
60
1E
02
0C
38
08
04
03
07
ENDCHAR
STARTCHAR scedilla
ENCODING 351
SWIDTH 366 0
DWIDTH 5 0
BBX 5 11 0 -4
BITMAP
30
40
80
B8
48
10
60
20
30
08
38
ENDCHAR
STARTCHAR Scaron
ENCODING 352
SWIDTH 541 0
DWIDTH 8 0
BBX 7 13 0 0
BITMAP
64
28
10
1C
20
40
80
80
60
1E
02
0C
30
ENDCHAR
STARTCHAR scaron
ENCODING 353
SWIDTH 366 0
DWIDTH 5 0
BBX 5 10 0 0
BITMAP
88
50
20
30
40
80
B8
48
10
60
ENDCHAR
STARTCHAR Tcommaaccent
ENCODING 354
SWIDTH 595 0
DWIDTH 8 0
BBX 10 15 0 -5
BITMAP
0FC0
F800
0800
0800
0400
0400
0400
0400
0400
0400
0000
0400
0200
0400
0400
ENDCHAR
STARTCHAR tcommaaccent
ENCODING 355
SWIDTH 268 0
DWIDTH 4 0
BBX 5 16 -1 -5
BITMAP
20
20
20
38
60
A0
20
20
20
20
20
00
20
20
20
20
ENDCHAR
STARTCHAR Tcaron
ENCODING 356
SWIDTH 595 0
DWIDTH 8 0
BBX 10 14 0 0
BITMAP
1300
0C00
0000
0000
0FC0
F800
0800
0800
0400
0400
0400
0400
0400
0400
ENDCHAR
STARTCHAR Tbar
ENCODING 358
SWIDTH 595 0
DWIDTH 8 0
BBX 10 10 0 0
BITMAP
0FC0
F800
0800
3E00
0400
0400
0400
0400
0400
0400
ENDCHAR
STARTCHAR Utilde
ENCODING 360
SWIDTH 450 0
DWIDTH 6 0
BBX 6 14 0 -2
BITMAP
64
58
00
04
84
84
84
8C
8C
8C
54
64
04
04
ENDCHAR
STARTCHAR utilde
ENCODING 361
SWIDTH 387 0
DWIDTH 5 0
BBX 5 10 0 0
BITMAP
E8
B8
00
88
88
88
88
98
58
68
ENDCHAR
STARTCHAR Umacron
ENCODING 362
SWIDTH 450 0
DWIDTH 6 0
BBX 6 12 0 -2
BITMAP
7C
04
84
84
84
8C
8C
8C
54
64
04
04
ENDCHAR
STARTCHAR umacron
ENCODING 363
SWIDTH 387 0
DWIDTH 5 0
BBX 5 10 0 0
BITMAP
F8
00
00
88
88
88
88
98
58
68
ENDCHAR
STARTCHAR Ubreve
ENCODING 364
SWIDTH 450 0
DWIDTH 6 0
BBX 6 12 0 -2
BITMAP
28
14
84
84
84
8C
8C
8C
54
64
04
04
ENDCHAR
STARTCHAR ubreve
ENCODING 365
SWIDTH 387 0
DWIDTH 5 0
BBX 5 10 0 0
BITMAP
58
20
00
88
88
88
88
98
58
68
ENDCHAR
STARTCHAR Uring
ENCODING 366
SWIDTH 450 0
DWIDTH 6 0
BBX 6 13 0 -2
BITMAP
78
30
04
84
84
84
8C
8C
8C
54
64
04
04
ENDCHAR
STARTCHAR uring
ENCODING 367
SWIDTH 387 0
DWIDTH 5 0
BBX 5 9 0 0
BITMAP
70
70
88
88
88
88
98
58
68
ENDCHAR
STARTCHAR Uhungarumlaut
ENCODING 368
SWIDTH 450 0
DWIDTH 6 0
BBX 6 14 0 -2
BITMAP
10
38
10
04
84
84
84
8C
8C
8C
54
64
04
04
ENDCHAR
STARTCHAR uhungarumlaut
ENCODING 369
SWIDTH 387 0
DWIDTH 5 0
BBX 5 10 0 0
BITMAP
20
50
20
88
88
88
88
98
58
68
ENDCHAR
STARTCHAR Uogonek
ENCODING 370
SWIDTH 450 0
DWIDTH 6 0
BBX 7 13 0 -4
BITMAP
04
84
84
84
8C
8C
8C
54
64
04
0C
08
06
ENDCHAR
STARTCHAR uogonek
ENCODING 371
SWIDTH 387 0
DWIDTH 5 0
BBX 6 10 0 -3
BITMAP
88
88
88
88
98
58
68
10
10
1C
ENDCHAR
STARTCHAR Wcircumflex
ENCODING 372
SWIDTH 878 0
DWIDTH 12 0
BBX 12 14 0 0
BITMAP
0400
0600
0980
0800
0010
8210
4220
4520
4520
4520
28C0
28C0
2840
1000
ENDCHAR
STARTCHAR wcircumflex
ENCODING 373
SWIDTH 566 0
DWIDTH 8 0
BBX 7 13 0 0
BITMAP
10
28
24
40
00
00
92
5A
5A
56
32
22
10
ENDCHAR
STARTCHAR Ycircumflex
ENCODING 374
SWIDTH 483 0
DWIDTH 7 0
BBX 7 15 0 0
BITMAP
10
28
44
40
02
04
84
44
48
28
18
10
10
10
20
ENDCHAR
STARTCHAR ycircumflex
ENCODING 375
SWIDTH 363 0
DWIDTH 5 0
BBX 5 18 0 -5
BITMAP
20
50
88
80
00
00
08
88
48
28
28
18
08
08
08
08
10
10
ENDCHAR
STARTCHAR Ydieresis
ENCODING 376
SWIDTH 483 0
DWIDTH 7 0
BBX 7 11 0 0
BITMAP
0A
24
84
44
48
28
18
10
10
10
20
ENDCHAR
STARTCHAR Zacute
ENCODING 377
SWIDTH 670 0
DWIDTH 9 0
BBX 9 13 0 0
BITMAP
0800
1000
0000
FF00
0200
0200
0400
0800
1000
2000
2000
4000
FF80
ENDCHAR
STARTCHAR zacute
ENCODING 378
SWIDTH 618 0
DWIDTH 9 0
BBX 9 10 0 0
BITMAP
0800
0800
0000
1C00
E800
0800
1000
1000
2380
3C00
ENDCHAR
STARTCHAR Zdotaccent
ENCODING 379
SWIDTH 670 0
DWIDTH 9 0
BBX 9 12 0 0
BITMAP
0800
0000
FF00
0200
0200
0400
0800
1000
2000
2000
4000
FF80
ENDCHAR
STARTCHAR zdotaccent
ENCODING 380
SWIDTH 618 0
DWIDTH 9 0
BBX 9 9 0 0
BITMAP
0800
0000
1C00
E800
0800
1000
1000
2380
3C00
ENDCHAR
STARTCHAR Zcaron
ENCODING 381
SWIDTH 670 0
DWIDTH 9 0
BBX 9 13 0 0
BITMAP
1200
0C00
0000
FF00
0200
0200
0400
0800
1000
2000
2000
4000
FF80
ENDCHAR
STARTCHAR zcaron
ENCODING 382
SWIDTH 618 0
DWIDTH 9 0
BBX 9 10 0 0
BITMAP
2400
1800
0000
1C00
E800
0800
1000
1000
2380
3C00
ENDCHAR
STARTCHAR florin
ENCODING 402
SWIDTH 345 0
DWIDTH 5 0
BBX 5 16 0 -4
BITMAP
30
50
40
40
40
78
C0
40
40
40
40
40
40
20
20
C0
ENDCHAR
STARTCHAR AEacute
ENCODING 508
SWIDTH 708 0
DWIDTH 10 0
BBX 10 13 0 0
BITMAP
0800
1000
4000
6B80
6C00
6800
5880
5B00
5C00
7840
4980
8A00
8C00
ENDCHAR
STARTCHAR aeacute
ENCODING 509
SWIDTH 705 0
DWIDTH 10 0
BBX 10 10 0 0
BITMAP
0400
0800
1300
3480
5B00
5C00
9840
A880
C900
8E00
ENDCHAR
STARTCHAR Oslashacute
ENCODING 510
SWIDTH 382 0
DWIDTH 5 0
BBX 5 13 0 -1
BITMAP
10
20
08
38
58
58
A8
A8
A8
A8
D0
60
40
ENDCHAR
STARTCHAR oslashacute
ENCODING 511
SWIDTH 266 0
DWIDTH 4 0
BBX 4 12 0 -1
BITMAP
20
40
00
50
60
A0
B0
D0
E0
A0
C0
80
ENDCHAR
STARTCHAR Scommaaccent
ENCODING 536
SWIDTH 541 0
DWIDTH 8 0
BBX 7 15 0 -5
BITMAP
1C
20
40
80
80
60
1E
02
0C
30
00
10
10
10
10
ENDCHAR
STARTCHAR scommaaccent
ENCODING 537
SWIDTH 366 0
DWIDTH 5 0
BBX 5 12 0 -5
BITMAP
30
40
80
B8
48
10
60
00
20
20
20
20
ENDCHAR
STARTCHAR circumflex
ENCODING 710
SWIDTH 390 0
DWIDTH 5 0
BBX 5 4 0 9
BITMAP
20
50
48
80
ENDCHAR
STARTCHAR caron
ENCODING 711
SWIDTH 390 0
DWIDTH 5 0
BBX 4 2 1 9
BITMAP
90
60
ENDCHAR
STARTCHAR breve
ENCODING 728
SWIDTH 390 0
DWIDTH 5 0
BBX 3 2 1 8
BITMAP
A0
40
ENDCHAR
STARTCHAR dotaccent
ENCODING 729
SWIDTH 128 0
DWIDTH 2 0
BBX 1 1 0 8
BITMAP
80
ENDCHAR
STARTCHAR ring
ENCODING 730
SWIDTH 266 0
DWIDTH 4 0
BBX 4 2 0 7
BITMAP
F0
E0
ENDCHAR
STARTCHAR ogonek
ENCODING 731
SWIDTH 366 0
DWIDTH 5 0
BBX 4 3 1 -3
BITMAP
40
80
F0
ENDCHAR
STARTCHAR tilde
ENCODING 732
SWIDTH 458 0
DWIDTH 6 0
BBX 5 2 1 8
BITMAP
C8
B0
ENDCHAR
STARTCHAR hungarumlaut
ENCODING 733
SWIDTH 239 0
DWIDTH 3 0
BBX 3 3 0 6
BITMAP
40
A0
40
ENDCHAR
STARTCHAR Wgrave
ENCODING 7808
SWIDTH 878 0
DWIDTH 12 0
BBX 12 13 0 0
BITMAP
0200
0200
0000
0010
8210
4220
4520
4520
4520
28C0
28C0
2840
1000
ENDCHAR
STARTCHAR wgrave
ENCODING 7809
SWIDTH 566 0
DWIDTH 8 0
BBX 7 10 0 0
BITMAP
10
08
00
92
5A
5A
56
32
22
10
ENDCHAR
STARTCHAR Wacute
ENCODING 7810
SWIDTH 878 0
DWIDTH 12 0
BBX 12 13 0 0
BITMAP
0200
0400
0000
0010
8210
4220
4520
4520
4520
28C0
28C0
2840
1000
ENDCHAR
STARTCHAR wacute
ENCODING 7811
SWIDTH 566 0
DWIDTH 8 0
BBX 7 10 0 0
BITMAP
08
10
00
92
5A
5A
56
32
22
10
ENDCHAR
STARTCHAR Wdieresis
ENCODING 7812
SWIDTH 878 0
DWIDTH 12 0
BBX 12 11 0 0
BITMAP
0500
0010
8210
4220
4520
4520
4520
28C0
28C0
2840
1000
ENDCHAR
STARTCHAR wdieresis
ENCODING 7813
SWIDTH 566 0
DWIDTH 8 0
BBX 7 10 0 0
BITMAP
18
00
00
92
5A
5A
56
32
22
10
ENDCHAR
STARTCHAR Ygrave
ENCODING 7922
SWIDTH 483 0
DWIDTH 7 0
BBX 7 13 0 0
BITMAP
10
10
02
04
84
44
48
28
18
10
10
10
20
ENDCHAR
STARTCHAR ygrave
ENCODING 7923
SWIDTH 363 0
DWIDTH 5 0
BBX 5 15 0 -5
BITMAP
20
20
00
08
88
48
28
28
18
08
08
08
08
10
10
ENDCHAR
STARTCHAR endash
ENCODING 8211
SWIDTH 399 0
DWIDTH 6 0
BBX 5 2 0 3
BITMAP
08
F0
ENDCHAR
STARTCHAR emdash
ENCODING 8212
SWIDTH 549 0
DWIDTH 8 0
BBX 7 1 0 3
BITMAP
FE
ENDCHAR
STARTCHAR quoteleft
ENCODING 8216
SWIDTH 155 0
DWIDTH 2 0
BBX 1 4 0 5
BITMAP
80
80
80
80
ENDCHAR
STARTCHAR quoteright
ENCODING 8217
SWIDTH 155 0
DWIDTH 2 0
BBX 1 4 0 5
BITMAP
80
80
80
80
ENDCHAR
STARTCHAR quotesinglbase
ENCODING 8218
SWIDTH 155 0
DWIDTH 2 0
BBX 1 4 1 0
BITMAP
80
80
80
80
ENDCHAR
STARTCHAR quotedblleft
ENCODING 8220
SWIDTH 212 0
DWIDTH 3 0
BBX 2 4 0 7
BITMAP
C0
C0
C0
C0
ENDCHAR
STARTCHAR quotedblright
ENCODING 8221
SWIDTH 212 0
DWIDTH 3 0
BBX 2 4 0 7
BITMAP
C0
C0
C0
C0
ENDCHAR
STARTCHAR quotedblbase
ENCODING 8222
SWIDTH 212 0
DWIDTH 3 0
BBX 3 4 0 0
BITMAP
A0
A0
A0
60
ENDCHAR
STARTCHAR dagger
ENCODING 8224
SWIDTH 268 0
DWIDTH 4 0
BBX 5 11 -1 0
BITMAP
20
20
20
38
60
A0
20
20
20
20
20
ENDCHAR
STARTCHAR daggerdbl
ENCODING 8225
SWIDTH 326 0
DWIDTH 5 0
BBX 5 11 0 0
BITMAP
40
40
40
58
60
D8
E0
40
40
20
20
ENDCHAR
STARTCHAR bullet
ENCODING 8226
SWIDTH 189 0
DWIDTH 3 0
BBX 1 2 1 3
BITMAP
80
80
ENDCHAR
STARTCHAR ellipsis
ENCODING 8230
SWIDTH 387 0
DWIDTH 5 0
BBX 5 1 0 0
BITMAP
A8
ENDCHAR
STARTCHAR guilsinglleft
ENCODING 8249
SWIDTH 409 0
DWIDTH 6 0
BBX 5 7 1 2
BITMAP
08
10
60
80
80
60
10
ENDCHAR
STARTCHAR guilsinglright
ENCODING 8250
SWIDTH 450 0
DWIDTH 6 0
BBX 4 7 1 2
BITMAP
80
60
10
10
20
40
80
ENDCHAR
STARTCHAR fraction
ENCODING 8260
SWIDTH 306 0
DWIDTH 4 0
BBX 4 11 0 -1
BITMAP
10
10
20
20
20
40
40
40
40
80
80
ENDCHAR
STARTCHAR Euro
ENCODING 8364
SWIDTH 589 0
DWIDTH 8 0
BBX 8 10 0 0
BITMAP
0C
10
10
20
F8
20
3C
E1
23
3C
ENDCHAR
STARTCHAR trademark
ENCODING 8482
SWIDTH 1278 0
DWIDTH 18 0
BBX 17 11 0 0
BITMAP
004100
0FE100
F86100
085280
085280
044A80
044C80
044480
044080
044080
044080
ENDCHAR
STARTCHAR minus
ENCODING 8722
SWIDTH 358 0
DWIDTH 5 0
BBX 4 1 1 4
BITMAP
F0
ENDCHAR
STARTCHAR commaaccent
ENCODING 63171
SWIDTH 450 0
DWIDTH 6 0
BBX 1 4 2 -5
BITMAP
80
80
80
80
ENDCHAR
STARTCHAR fi
ENCODING 64257
SWIDTH 409 0
DWIDTH 6 0
BBX 5 12 0 0
BITMAP
30
50
48
40
48
78
C8
48
48
48
28
28
ENDCHAR
STARTCHAR fl
ENCODING 64258
SWIDTH 416 0
DWIDTH 6 0
BBX 5 12 0 0
BITMAP
38
48
48
48
48
78
C8
48
48
48
28
28
ENDCHAR
STARTCHAR .notdef
ENCODING -1
SWIDTH 450 0
DWIDTH 6 0
BBX 1 1 0 0
BITMAP
00
ENDCHAR
STARTCHAR .null
ENCODING -1
SWIDTH 0 0
DWIDTH 0 0
BBX 1 1 0 0
BITMAP
00
ENDCHAR
STARTCHAR nonmarkingreturn
ENCODING -1
SWIDTH 450 0
DWIDTH 6 0
BBX 1 1 0 0
BITMAP
00
ENDCHAR
ENDFONT
